<svg xmlns="http://www.w3.org/2000/svg" xmlns:xlink="http://www.w3.org/1999/xlink" version="1.1" width="999.54039" height="118.16788" viewBox="0,0,999.54039,118.16788"><g transform="translate(-155.85074,-96.88911)"><g data-paper-data="{&quot;isPaintingLayer&quot;:true}" fill-rule="nonzero" stroke-dasharray="" stroke-dashoffset="0" style="mix-blend-mode: normal"><g><g stroke="none" stroke-width="0.42926" stroke-linecap="butt" stroke-linejoin="miter" stroke-miterlimit="10" opacity="0.96"><path d="M155.85074,96.88911h42.97197c8.47095,0 15.30304,1.12125 20.49629,3.36376c5.23581,2.24251 9.55642,5.46094 12.96183,9.65529c3.40541,4.19432 5.87433,9.07385 7.40676,14.63859c1.53243,5.56477 2.29865,11.46175 2.29865,17.69094c0,9.75906 -1.14932,17.33791 -3.44797,22.73656c-2.25608,5.3571 -5.40608,9.86289 -9.45,13.51736c-4.04392,3.61293 -8.38581,6.02156 -13.02568,7.22589c-6.34257,1.66112 -12.08919,2.49167 -17.23987,2.49167h-42.97197zM184.77541,117.57004v49.89588h7.0875c6.0446,0 10.34392,-0.64368 12.89797,-1.93104c2.55406,-1.3289 4.55473,-3.61294 6.00203,-6.85211c1.4473,-3.28072 2.17094,-8.57553 2.17094,-15.88445c0,-9.67603 -1.61757,-16.29975 -4.8527,-19.87116c-3.23513,-3.57141 -8.59865,-5.35712 -16.09055,-5.35712z" fill="#ed0150"/><path d="M247.86055,122.05507h27.45608l13.98345,44.04044l12.96183,-44.04044h25.6044l-26.88142,70.7014c-3.06486,8.05643 -6.19358,13.49659 -9.38615,16.32049c-4.51216,3.98668 -11.38683,5.98003 -20.62399,5.98003c-3.74594,0 -9.53513,-0.49833 -17.36757,-1.49499l-2.04324,-17.69094c3.74595,1.16278 7.91757,1.74418 12.51487,1.74418c3.06486,0 5.53379,-0.68521 7.40676,-2.05563c1.91554,-1.37042 3.53311,-3.82056 4.8527,-7.35043z" fill="#5c9905"/><path d="M335.33694,122.05507h24.19967v10.77651c3.61824,-4.40195 7.27906,-7.53732 10.98243,-9.40611c3.70338,-1.91027 8.21554,-2.8654 13.53649,-2.8654c7.19392,0 12.81284,2.09716 16.85676,6.29148c4.08649,4.1528 6.12973,10.58965 6.12973,19.31053v42.04709h-26.11521v-36.37852c0,-4.1528 -0.7875,-7.08054 -2.3625,-8.7832c-1.575,-1.74418 -3.78851,-2.61626 -6.64054,-2.61626c-3.15,0 -5.70406,1.16278 -7.66216,3.48835c-1.95811,2.32557 -2.93716,6.49913 -2.93716,12.52069v31.76894h-25.98751z" fill="#3d4acc"/><path d="M446.37445,143.4835l-24.83818,-2.55395c0.93649,-4.23586 2.27737,-7.55811 4.02264,-9.96674c1.78784,-2.45014 4.34189,-4.56806 7.66217,-6.35375c2.38378,-1.28739 5.66149,-2.28407 9.83311,-2.99004c4.17162,-0.70597 8.68378,-1.05895 13.53649,-1.05895c7.78987,0 14.0473,0.43604 18.7723,1.30813c4.725,0.83054 8.6625,2.59548 11.8125,5.2948c2.21351,1.86875 3.95878,4.52655 5.23581,7.97338c1.27703,3.40529 1.91554,6.66524 1.91554,9.77983v29.21495c0,3.1146 0.19155,5.56474 0.57466,7.35043c0.42568,1.74418 1.3196,3.9867 2.68176,6.72757h-24.39122c-0.97905,-1.70266 -1.61757,-2.99004 -1.91554,-3.86212c-0.29797,-0.9136 -0.59595,-2.32555 -0.89392,-4.23585c-3.40541,3.19766 -6.78953,5.48169 -10.15237,6.85211c-4.5973,1.82724 -9.93953,2.74085 -16.02669,2.74085c-8.08784,0 -14.23886,-1.82724 -18.45304,-5.48171c-4.17162,-3.65444 -6.25744,-8.16023 -6.25744,-13.51736c0,-5.02486 1.51115,-9.15689 4.53345,-12.39609c3.0223,-3.23917 8.59865,-5.64778 16.72906,-7.22584c9.74797,-1.9103 16.06926,-3.2392 18.96385,-3.98671c2.8946,-0.78903 5.95946,-1.80646 9.19459,-3.05231c0,-3.1146 -0.6598,-5.29482 -1.97939,-6.54066c-1.3196,-1.24584 -3.63953,-1.86877 -6.9598,-1.86877c-4.25676,0 -7.44933,0.66445 -9.5777,1.99336c-1.66014,1.03821 -3.00101,2.99002 -4.02264,5.85543zM468.91398,156.814c-3.57567,1.24584 -7.30034,2.34634 -11.17399,3.30149c-5.27838,1.37042 -8.61994,2.72007 -10.02466,4.04894c-1.4473,1.37045 -2.17094,2.92776 -2.17094,4.67194c0,1.99333 0.70236,3.63367 2.10709,4.92103c1.4473,1.24584 3.55439,1.86877 6.32129,1.86877c2.8946,0 5.57635,-0.68521 8.04527,-2.05563c2.51149,-1.37042 4.27804,-3.03154 5.29966,-4.98335c1.06419,-1.99336 1.59628,-4.56809 1.59628,-7.7242z" fill="#ff7e2a"/><path d="M511.8221,96.88911h54.14596c9.02432,0 15.94156,2.18022 20.75169,6.54066c4.8527,4.36044 7.27906,9.75907 7.27906,16.1959c0,5.39865 -1.72399,10.02903 -5.17196,13.89114c-2.29865,2.57472 -5.66149,4.60959 -10.08851,6.10462c6.72568,1.57806 11.66352,4.29814 14.81352,8.16025c3.19257,3.82056 4.78885,8.6378 4.78885,14.45172c0,4.7342 -1.12804,8.99082 -3.38412,12.76987c-2.25608,3.77905 -5.34223,6.76907 -9.25845,8.97006c-2.42635,1.37042 -6.08716,2.36708 -10.98243,2.98999c-6.51284,0.83057 -10.83345,1.24586 -12.96183,1.24586h-49.93177zM541.00217,132.70699h12.57872c4.51216,0 7.64088,-0.7475 9.38615,-2.24249c1.78784,-1.53654 2.68176,-3.73753 2.68176,-6.60298c0,-2.65778 -0.89392,-4.73417 -2.68176,-6.22916c-1.74527,-1.49503 -4.81013,-2.24254 -9.19459,-2.24254h-12.77027zM541.00217,168.58719h14.74967c4.98041,0 8.49223,-0.85133 10.53547,-2.55399c2.04325,-1.74418 3.06487,-4.06974 3.06487,-6.9767c0,-2.69932 -1.02162,-4.85877 -3.06487,-6.47834c-2.00068,-1.66112 -5.53379,-2.49167 -10.59933,-2.49167h-14.68581z" fill="#c1cf09"/><path d="M612.57957,96.88911h26.05137v91.32006h-26.05137z" fill="#38ce8c"/><path d="M652.16744,155.31901c0,-10.0913 3.49054,-18.39691 10.47161,-24.91683c6.98108,-6.5614 16.40978,-9.8421 28.28613,-9.8421c13.57907,0 23.83787,3.84134 30.77639,11.52401c5.57635,6.18768 8.36453,13.80806 8.36453,22.86115c0,10.17436 -3.46926,18.52148 -10.40778,25.04137c-6.89594,6.47837 -16.45235,9.71756 -28.66925,9.71756c-10.89731,0 -19.7088,-2.69932 -26.43446,-8.09797c-8.25811,-6.68601 -12.38716,-15.4484 -12.38716,-26.28718zM678.21876,155.25678c0,5.89698 1.21319,10.25742 3.63956,13.08132c2.46892,2.8239 5.55507,4.23585 9.25844,4.23585c3.74593,0 6.81078,-1.39118 9.19457,-4.17353c2.42637,-2.78238 3.63956,-7.24666 3.63956,-13.39282c0,-5.73086 -1.21319,-9.98747 -3.63956,-12.76982c-2.42634,-2.8239 -5.42735,-4.23585 -9.00303,-4.23585c-3.78851,0 -6.91723,1.43271 -9.38615,4.29812c-2.46892,2.8239 -3.70339,7.14281 -3.70339,12.95673z" fill="#a248a2"/><path d="M793.27891,162.35798l24.7105,2.74085c-1.36217,5.02489 -3.59697,9.38533 -6.7044,13.08132c-3.10743,3.65444 -7.08749,6.4991 -11.9402,8.53397c-4.81016,2.03487 -10.93988,3.05231 -18.38918,3.05231c-7.19394,0 -13.19597,-0.64368 -18.0061,-1.93104c-4.76757,-1.3289 -8.87535,-3.44684 -12.32333,-6.3538c-3.44795,-2.94847 -6.15099,-6.3953 -8.10911,-10.34047c-1.95812,-3.94514 -2.93718,-9.17767 -2.93718,-15.69758c0,-6.81058 1.19189,-12.47914 3.57568,-17.00567c1.74528,-3.32226 4.12907,-6.29153 7.15136,-8.90779c3.02229,-2.65778 6.12973,-4.63035 9.32232,-5.91771c5.06554,-2.03487 11.55709,-3.05231 19.47464,-3.05231c11.06756,0 19.49595,1.93105 25.28516,5.79316c5.83174,3.86208 9.91822,9.50988 12.25945,16.9434l-24.45508,3.1769c-0.76623,-2.8239 -2.17095,-4.94183 -4.21418,-6.3538c-2.00067,-1.45348 -4.70372,-2.18022 -8.10915,-2.18022c-4.29932,0 -7.78986,1.51577 -10.47161,4.5473c-2.63917,2.99002 -3.95876,7.53734 -3.95876,13.64195c0,5.44016 1.31959,9.5722 3.95876,12.39609c2.6392,2.8239 6.00205,4.23585 10.08853,4.23585c3.4054,0 6.25742,-0.85132 8.55607,-2.55395c2.34123,-1.70266 4.0865,-4.31893 5.23581,-7.84879z" fill-opacity="0.96863" fill="#99d8e6"/><path d="M830.05732,96.88911h26.56216v47.09275l19.41081,-21.92679h31.98956l-24.32737,23.1726l25.73208,42.98149h-29.30775l-13.72804,-26.53641l-9.76928,9.34379v17.19263h-26.56216z" fill="#ed0150"/><path d="M912.8087,169.89532l25.79596,-2.36708c1.0642,2.98999 2.55406,5.12868 4.4696,6.41607c1.91553,1.28736 4.46958,1.93104 7.66215,1.93104c3.49054,0 6.19359,-0.72674 8.10915,-2.18022c1.48987,-1.07972 2.2348,-2.42939 2.2348,-4.04899c0,-1.82724 -0.97906,-3.23919 -2.93718,-4.23585c-1.40473,-0.70597 -5.12939,-1.57806 -11.17399,-2.61626c-9.02433,-1.53654 -15.30305,-2.94849 -18.83614,-4.23585c-3.49054,-1.3289 -6.44899,-3.55066 -8.87536,-6.66525c-2.38379,-3.1146 -3.57568,-6.66524 -3.57568,-10.65192c0,-4.36044 1.29831,-8.11873 3.89493,-11.27487c2.59665,-3.15611 6.17233,-5.50244 10.72703,-7.03898c4.55474,-1.57806 10.66319,-2.36708 18.32535,-2.36708c8.08786,0 14.04732,0.60215 17.87839,1.80645c3.87365,1.20433 7.08751,3.0731 9.64157,5.6063c2.59662,2.5332 4.74628,5.95925 6.44898,10.27815l-24.64662,2.36713c-0.63853,-2.11793 -1.70273,-3.67525 -3.1926,-4.67194c-2.04323,-1.32887 -4.51214,-1.99331 -7.40673,-1.99331c-2.93718,0 -5.08685,0.5191 -6.44902,1.55731c-1.31959,0.99666 -1.97938,2.22173 -1.97938,3.67521c0,1.61957 0.85135,2.84464 2.55405,3.67521c1.7027,0.83057 5.40609,1.57807 11.11016,2.24249c8.64122,0.95515 15.06892,2.28405 19.2831,3.98671c4.21418,1.70263 7.42804,4.13202 9.64157,7.28816c2.25606,3.15611 3.38409,6.62369 3.38409,10.40274c0,3.82059 -1.19189,7.53735 -3.57568,11.15028c-2.3412,3.61293 -6.06586,6.49913 -11.17399,8.65861c-5.06554,2.1179 -11.98277,3.17685 -20.75169,3.17685c-12.38715,0 -21.21991,-1.7234 -26.49829,-5.17021c-5.23582,-3.44684 -8.59867,-8.34714 -10.08853,-14.70091z" fill="#5c9905"/></g><path d="M992.99406,179.64371c0,-6.37932 5.17146,-11.55079 11.55079,-11.55079c6.37932,0 11.55079,5.17146 11.55079,11.55079c0,6.37932 -5.17146,11.55079 -11.55079,11.55079c-6.37932,0 -11.55079,-5.17146 -11.55079,-11.55079z" fill="#000000" stroke="#000000" stroke-width="0.752" stroke-linecap="round" stroke-linejoin="round" stroke-miterlimit="4" opacity="0.96"/><g fill="#d0a2cf" stroke="none" stroke-width="0.12811" stroke-linecap="butt" stroke-linejoin="miter" stroke-miterlimit="10"><path d="M1035.82329,189.18915v-45.47627h16.5319c3.36649,0 6.06168,0.46531 8.08557,1.39593c2.04395,0.90996 3.63702,2.32657 4.77923,4.24983c1.16223,1.9026 1.74335,3.89828 1.74335,5.98702c0,1.94393 -0.51099,3.77414 -1.53296,5.49063c-1.02194,1.71646 -2.56491,3.10204 -4.62892,4.15675c2.66514,0.80654 4.70909,2.18178 6.13184,4.12575c1.44278,1.94396 2.16417,4.2395 2.16417,6.88661c0,2.13007 -0.44084,4.11538 -1.32253,5.95593c-0.86166,1.81988 -1.93374,3.22616 -3.21624,4.21884c-1.28246,0.99265 -2.89557,1.74749 -4.8393,2.26452c-1.92371,0.49631 -4.28828,0.74446 -7.09371,0.74446zM1041.65455,162.82161h9.52838c2.58498,0 4.43855,-0.17578 5.56071,-0.52734c1.48285,-0.45498 2.59501,-1.20982 3.33647,-2.26452c0.76145,-1.0547 1.14218,-2.37824 1.14218,-3.97062c0,-1.50968 -0.35067,-2.83324 -1.05202,-3.97067c-0.70135,-1.15809 -1.70328,-1.94395 -3.0058,-2.35756c-1.30252,-0.43428 -3.53683,-0.65142 -6.70293,-0.65142h-8.80698zM1041.65455,183.8226h10.97114c1.88363,0 3.20619,-0.07244 3.96768,-0.21732c1.3426,-0.24804 2.46477,-0.66164 3.36651,-1.2408c0.90174,-0.57906 1.64317,-1.41663 2.22428,-2.51269c0.58112,-1.11673 0.87167,-2.39891 0.87167,-3.84653c0,-1.69579 -0.42082,-3.16411 -1.26246,-4.40496c-0.84161,-1.26148 -2.01387,-2.14039 -3.51677,-2.63673c-1.48285,-0.517 -3.62698,-0.77551 -6.43238,-0.77551h-10.18967z"/><path d="M1098.34385,178.58009l5.59079,0.71346c-0.88172,3.37092 -2.51487,5.987 -4.89947,7.84824c-2.38459,1.86124 -5.43046,2.79186 -9.1376,2.79186c-4.66901,0 -8.37616,-1.47865 -11.12146,-4.43596c-2.72524,-2.97797 -4.08786,-7.14508 -4.08786,-12.50133c0,-5.54236 1.38266,-9.84389 4.14798,-12.90458c2.76535,-3.06069 6.35227,-4.59104 10.76076,-4.59104c4.26823,0 7.75495,1.49933 10.46017,4.498c2.70522,2.99867 4.05783,7.21747 4.05783,12.65641c0,0.33089 -0.00926,0.82722 -0.02777,1.48897h-23.80587c0.20054,3.61909 1.19245,6.39027 2.97572,8.31354c1.78342,1.9233 4.00771,2.88495 6.67285,2.88495c1.98385,0 3.67712,-0.5377 5.07982,-1.6131c1.4027,-1.07537 2.51484,-2.79184 3.33642,-5.14942zM1080.57963,169.55309h17.82434c-0.24034,-2.77116 -0.92166,-4.84954 -2.04393,-6.23514c-1.72332,-2.15077 -3.95763,-3.22616 -6.70293,-3.22616c-2.4848,0 -4.57884,0.85825 -6.28211,2.57474c-1.68324,1.71646 -2.61504,4.01198 -2.79537,6.88656z"/><path d="M1122.57059,184.19486l0.78147,4.93225c-1.52293,0.33089 -2.88555,0.49634 -4.08786,0.49634c-1.96379,0 -3.48672,-0.32054 -4.5688,-0.96163c-1.08211,-0.64109 -1.84357,-1.47865 -2.2844,-2.51269c-0.44086,-1.0547 -0.66129,-3.25717 -0.66129,-6.6074v-18.95359h-3.96763v-4.34287h3.96763v-8.15846l5.38036,-3.35019v11.50865h5.44052v4.34287h-5.44052v19.26381c0,1.59241 0.09024,2.6161 0.27073,3.07107c0.20054,0.45495 0.51114,0.81685 0.93179,1.08572c0.44086,0.26874 1.06205,0.40311 1.86358,0.40311c0.60117,0 1.3927,-0.07244 2.3746,-0.21732z"/><path d="M1148.6609,185.12544c-2.00387,1.75785 -3.93761,2.99868 -5.80122,3.7225c-1.84356,0.72381 -3.82737,1.08572 -5.95144,1.08572c-3.50678,0 -6.20198,-0.87893 -8.08562,-2.63678c-1.88363,-1.77852 -2.82545,-4.04301 -2.82545,-6.79348c0,-1.6131 0.35067,-3.08142 1.05202,-4.40496c0.7214,-1.34424 1.65321,-2.41962 2.79542,-3.22616c1.16223,-0.80654 2.46473,-1.41659 3.90751,-1.83018c1.06205,-0.28944 2.66514,-0.56863 4.80927,-0.8376c4.36844,-0.53767 7.58464,-1.17876 9.64862,-1.92327c0.01851,-0.76517 0.02777,-1.25116 0.02777,-1.45797c0,-2.27486 -0.51099,-3.87759 -1.53296,-4.80821c-1.38268,-1.26148 -3.43663,-1.89222 -6.16188,-1.89222c-2.54491,0 -4.42854,0.46531 -5.6509,1.39593c-1.20231,0.90992 -2.09404,2.53333 -2.67518,4.87021l-5.2902,-0.74446c0.48094,-2.33691 1.27247,-4.21884 2.3746,-5.64576c1.10213,-1.44762 2.69521,-2.55402 4.77923,-3.3192c2.08399,-0.78587 4.49864,-1.17881 7.24394,-1.17881c2.72527,0 4.93954,0.33089 6.64281,0.99268c1.7033,0.66175 2.95571,1.4993 3.75724,2.51265c0.80156,0.99268 1.36265,2.25419 1.68328,3.78454c0.18018,0.95128 0.27027,2.66776 0.27027,5.14942v7.44494c0,5.1908 0.11015,8.47898 0.33044,9.86455c0.24034,1.3649 0.70124,2.67811 1.38269,3.93962h-5.6509c-0.56109,-1.15809 -0.92178,-2.51266 -1.08206,-4.06371zM1148.21014,172.65516c-1.96379,0.82723 -4.90946,1.53036 -8.83701,2.10939c-2.22431,0.33089 -3.79735,0.70315 -4.71911,1.11676c-0.92176,0.41362 -1.63314,1.02369 -2.13413,1.83023c-0.50096,0.78584 -0.75144,1.66475 -0.75144,2.63673c0,1.48899 0.54104,2.72982 1.62311,3.7225c1.10213,0.99265 2.70523,1.48897 4.80931,1.48897c2.08399,0 3.93756,-0.46531 5.56071,-1.39593c1.62311,-0.95128 2.81541,-2.24381 3.57689,-3.87758c0.58112,-1.26151 0.87167,-3.12275 0.87167,-5.58372z"/></g></g></g></g></svg>